<svg width="178" height="40" viewBox="0 0 178 40" fill="none" xmlns="http://www.w3.org/2000/svg">
<path d="M29.9575 32.4042C28.9295 33.1906 27.7941 33.8005 26.5819 34.2225L26.486 34.257C26.0564 34.4028 25.5692 34.2455 25.3007 33.8696L24.7292 33.0717C24.4031 32.6114 23.9696 32.3697 23.4134 32.3275C23.1602 32.3083 22.9186 32.3007 22.6194 32.3007C22.3547 32.3007 22.1054 32.3198 21.856 32.3505C21.3535 32.4119 20.9469 32.6574 20.6554 33.0832L19.9879 34.0537C19.7271 34.4335 19.2322 34.6022 18.7911 34.4565C17.6902 34.0959 16.5854 33.4975 15.3157 32.5769C15.0817 32.4081 14.7518 32.4388 14.5831 32.6497C14.4411 32.8262 14.4373 33.0794 14.5677 33.2635C15.3119 34.3184 16.0637 35.3733 16.7964 36.3936L18.1083 38.2272C18.8218 39.2322 19.7654 39.7654 20.9929 39.8613C21.5338 39.9035 22.0517 39.9227 22.558 39.9227C23.2485 39.9227 23.9121 39.8843 24.5642 39.8038C25.6613 39.6695 26.5436 39.1325 27.188 38.2042C27.6483 37.5406 28.1125 36.8616 28.5613 36.2057L28.7684 35.9065C29.2709 35.1776 29.7811 34.4296 30.2913 33.697C30.4332 33.4937 30.5713 33.2903 30.7132 33.0909C30.7784 32.9988 30.8091 32.8914 30.8091 32.784C30.8091 32.6306 30.7324 32.4886 30.6097 32.3927C30.4294 32.2508 30.157 32.2585 29.9614 32.4081L29.9575 32.4042Z" fill="white"/>
<path d="M12.0628 30.0798C11.0002 29.3472 10.0681 28.4534 9.29321 27.433L9.23184 27.3486C8.95949 26.9842 8.95949 26.4702 9.23184 26.1019L9.08607 25.9945L9.26636 26.0521L9.8149 25.3117C10.1486 24.8591 10.2484 24.3719 10.1179 23.8272C10.0604 23.5817 9.99136 23.3477 9.89546 23.0639C9.81107 22.8184 9.71517 22.5805 9.6116 22.3542C9.39679 21.8939 9.04004 21.587 8.54137 21.4374L7.40976 21.1037C6.96479 20.9733 6.65408 20.5552 6.65792 20.0872C6.65792 18.9326 6.88808 17.6974 7.37524 16.2014C7.46347 15.9252 7.33305 15.6221 7.07987 15.5301C6.8689 15.4495 6.62723 15.5224 6.49297 15.7027C5.7066 16.7537 4.92407 17.8163 4.16839 18.8405L4.1377 18.8788C3.71575 19.4542 3.28996 20.0296 2.86417 20.6012C2.1315 21.5909 1.91285 22.6534 2.20055 23.8464C2.50359 25.0931 2.87951 26.1978 3.35517 27.2259C3.81932 28.2309 4.60569 28.9022 5.68742 29.2282C6.46229 29.4584 7.24865 29.6924 8.01201 29.9187L8.29203 30.0031C9.16279 30.2601 10.0566 30.5248 10.9312 30.7895L10.9849 30.6169L10.9734 30.801C11.1958 30.87 11.4222 30.9352 11.6408 31.0043C11.6907 31.0196 11.7444 31.0273 11.7981 31.0273C11.8556 31.0273 11.9093 31.0196 11.963 31.0004C12.1088 30.9506 12.22 30.8355 12.2776 30.6897C12.3543 30.4749 12.2661 30.2179 12.0628 30.0798Z" fill="white"/>
<path d="M15.3312 7.62786C15.7033 7.28263 15.8836 6.84533 15.8721 6.32748L15.8414 5.14984C15.8299 4.68569 16.1291 4.26374 16.574 4.11797C17.6711 3.76506 18.9101 3.60012 20.4714 3.60012H20.4905C20.7821 3.60012 21.0276 3.38147 21.0391 3.10911C21.0506 2.88279 20.9048 2.67565 20.69 2.60277C19.5162 2.20383 18.3347 1.80873 17.184 1.42513L16.9385 1.34458C16.2595 1.11826 15.5844 0.891937 14.9054 0.665616C13.7354 0.27435 12.6575 0.3971 11.6142 1.0377C10.5209 1.70899 9.58878 2.41097 8.76022 3.182C7.95083 3.93384 7.55189 4.88899 7.57875 6.0206C7.59793 6.82998 7.62094 7.65088 7.64012 8.44492L7.64779 8.75947C7.67081 9.66091 7.69766 10.5815 7.71684 11.4945C7.72068 11.7438 7.72835 11.9893 7.72835 12.2348C7.72835 12.3461 7.76671 12.4535 7.83192 12.5417C7.92398 12.6645 8.06975 12.7373 8.22319 12.7412H8.23853C8.46101 12.7412 8.66816 12.5762 8.7372 12.3461C9.10929 11.1071 9.6655 9.94477 10.4212 8.8592L10.4557 8.80933C10.7204 8.43725 11.2076 8.27997 11.641 8.42574L11.6986 8.25696V8.44492L12.5732 8.73645C13.1063 8.91674 13.5973 8.8592 14.0768 8.56383C14.2917 8.43341 14.5026 8.29148 14.7328 8.11886C14.9476 7.95775 15.1394 7.80048 15.3197 7.62786H15.3312Z" fill="white"/>
<path d="M34.8289 8.61365C35.5079 9.54962 36.0488 10.6812 36.5321 12.1772C36.6088 12.4112 36.8198 12.5647 37.0423 12.5647C37.0845 12.5647 37.1267 12.5608 37.1688 12.5493C37.3875 12.488 37.5409 12.2885 37.5409 12.0622C37.5601 10.8001 37.5678 9.53044 37.5793 8.2991L37.5985 5.96301C37.61 4.73167 37.1612 3.742 36.2252 2.94796C35.2509 2.11556 34.2957 1.44426 33.306 0.895723C32.3394 0.354855 31.3075 0.2743 30.2411 0.650223C29.4778 0.918739 28.7029 1.19109 27.9549 1.45961L27.6749 1.55934C26.8195 1.86238 25.9449 2.17309 25.0779 2.47613C24.8439 2.55669 24.61 2.63724 24.3798 2.7178C24.2724 2.75232 24.1842 2.82137 24.119 2.9096C24.0307 3.03618 24.0077 3.19346 24.0499 3.34689C24.1151 3.56554 24.3261 3.71515 24.5716 3.71515H24.5869C25.8835 3.68446 27.157 3.85708 28.4114 4.23683L28.4843 4.25985C28.9177 4.39411 29.2169 4.81223 29.2131 5.2687L29.2054 6.25071C29.2016 6.81459 29.4049 7.2634 29.8345 7.62781C30.0263 7.79276 30.2219 7.94236 30.4598 8.11498C30.6746 8.26458 30.8894 8.40267 31.1081 8.52159C31.553 8.76709 32.0248 8.80545 32.512 8.63667L33.6244 8.24156C34.0579 8.08813 34.5566 8.24156 34.8289 8.62132V8.61365Z" fill="white"/>
<path d="M42.3513 20.5354C41.8603 19.8948 41.3616 19.2427 40.8744 18.6098L40.4755 18.0919C39.9921 17.4628 39.5011 16.8222 39.0217 16.1893L38.9833 16.1394C38.8452 15.9591 38.7109 15.7789 38.5767 15.5986C38.5115 15.5065 38.4194 15.4451 38.312 15.4144C38.1662 15.3684 38.009 15.3953 37.8747 15.4835C37.6867 15.6101 37.61 15.8709 37.6906 16.1049C38.1202 17.3247 38.3504 18.5906 38.3772 19.8756V19.9792C38.3849 20.4319 38.0818 20.8461 37.6446 20.9881L36.7086 21.2834C36.1715 21.4522 35.8071 21.786 35.5923 22.3038C35.4964 22.534 35.412 22.7641 35.32 23.0518C35.2432 23.305 35.1819 23.5505 35.132 23.7922C35.0361 24.2908 35.1435 24.7511 35.4581 25.1616L36.1754 26.0976C36.4592 26.4658 36.4631 26.9837 36.1869 27.3596C35.5079 28.2956 34.5988 29.1586 33.3253 30.0831C33.0913 30.2557 33.0222 30.5779 33.1718 30.8004C33.2677 30.9462 33.4288 31.0268 33.5976 31.0268C33.6475 31.0268 33.6974 31.0191 33.7472 31.0037C35.0016 30.6163 36.2598 30.2174 37.4758 29.8338L37.5218 29.8184C38.2008 29.6036 38.8836 29.3888 39.5664 29.174C40.7402 28.8057 41.5419 28.0731 42.0099 26.9376C42.497 25.7523 42.8423 24.6399 43.0609 23.5275C43.2719 22.4419 43.0341 21.4369 42.3474 20.5393L42.3513 20.5354Z" fill="white"/>
<path d="M56.2121 16.3416V1.02648C56.2121 0.459865 56.6719 0 57.2385 0H59.078C59.6446 0 60.1045 0.459865 60.1045 1.02648V8.34326H60.3098C60.7204 6.14248 62.256 4.12236 65.5736 4.12236C69.0718 4.12236 70.7799 6.40526 70.7799 9.4108V16.3416C70.7799 16.9082 70.32 17.3681 69.7534 17.3681H67.914C67.3473 17.3681 66.8875 16.9082 66.8875 16.3416V10.5769C66.8875 8.40074 65.9513 7.62061 63.5206 7.62061C60.901 7.62061 60.0963 8.67995 60.0963 10.8561V16.3334C60.0963 16.9 59.6364 17.3599 59.0698 17.3599H57.2303C56.6637 17.3599 56.2038 16.9 56.2038 16.3334L56.2121 16.3416Z" fill="white"/>
<path d="M72.2 12.4656V5.40341C72.2 4.8368 72.6599 4.37693 73.2265 4.37693H75.066C75.6326 4.37693 76.0925 4.8368 76.0925 5.40341V11.1681C76.0925 13.2704 76.9711 14.1491 79.4347 14.1491C81.8982 14.1491 82.8837 13.1636 82.8837 10.9629V5.40341C82.8837 4.8368 83.3435 4.37693 83.9102 4.37693H85.7496C86.3162 4.37693 86.7761 4.8368 86.7761 5.40341V16.3416C86.7761 16.9082 86.3162 17.3681 85.7496 17.3681H84.1647C83.5981 17.3681 83.1382 16.9082 83.1382 16.3416V13.4018H82.9329C82.5963 15.5779 81.0196 17.6227 77.5952 17.6227C73.9409 17.6227 72.2082 15.3726 72.2082 12.4656H72.2Z" fill="white"/>
<path d="M88.2386 16.3418V5.40355C88.2386 4.83693 88.6985 4.37707 89.2651 4.37707H90.8171C91.3838 4.37707 91.8436 4.83693 91.8436 5.40355V8.31877H92.0489C92.361 6.14262 93.6584 4.1225 96.9186 4.1225C99.9241 4.1225 101.452 5.96196 101.739 8.36804H101.969C102.281 6.16726 103.603 4.1225 106.945 4.1225C110.287 4.1225 111.922 6.32328 111.922 9.27956V16.3418C111.922 16.9084 111.462 17.3682 110.895 17.3682H109.056C108.489 17.3682 108.029 16.9084 108.029 16.3418V10.577C108.029 8.42552 107.282 7.62076 105.048 7.62076C102.692 7.62076 102.018 8.55691 102.018 10.807V16.3418C102.018 16.9084 101.558 17.3682 100.992 17.3682H99.1522C98.5856 17.3682 98.1257 16.9084 98.1257 16.3418V10.577C98.1257 8.42552 97.3784 7.62076 95.1448 7.62076C92.788 7.62076 92.1146 8.55691 92.1146 10.807V16.3418C92.1146 16.9084 91.6548 17.3682 91.0881 17.3682H89.2487C88.6821 17.3682 88.2222 16.9084 88.2222 16.3418H88.2386Z" fill="white"/>
<path d="M113.399 14.149C113.399 12.2275 114.828 11.0367 117.596 10.7575L123.163 10.1909V9.69821C123.163 8.01477 122.416 7.5467 120.338 7.5467C118.261 7.5467 117.563 8.06405 117.563 9.54218V9.64894H113.654V9.57503C113.654 6.36419 116.347 4.13056 120.626 4.13056C124.904 4.13056 126.998 6.35598 126.998 9.75569V16.3498C126.998 16.9164 126.538 17.3763 125.972 17.3763H124.387C123.82 17.3763 123.36 16.9164 123.36 16.3498V14.3954H123.155C122.555 16.4155 120.749 17.6309 117.866 17.6309C114.984 17.6309 113.383 16.3334 113.383 14.1573L113.399 14.149ZM118.992 14.8799C119.616 14.8799 120.174 14.847 120.667 14.7649C121.981 14.5596 121.693 12.5888 120.371 12.7366L118.655 12.9337C117.719 13.0076 117.308 13.2704 117.308 13.8945C117.308 14.5925 117.85 14.8799 118.992 14.8799Z" fill="white"/>
<path d="M128.452 16.3418V5.40355C128.452 4.83693 128.912 4.37707 129.478 4.37707H131.03C131.597 4.37707 132.057 4.83693 132.057 5.40355V8.36804H132.287C132.623 6.19189 134.175 4.1225 137.575 4.1225C140.975 4.1225 142.806 6.4054 142.806 9.27956V16.3418C142.806 16.9084 142.346 17.3682 141.78 17.3682H139.94C139.373 17.3682 138.914 16.9084 138.914 16.3418V10.577C138.914 8.50764 138.06 7.62076 135.678 7.62076C133.297 7.62076 132.336 8.60618 132.336 10.807V16.3418C132.336 16.9084 131.876 17.3682 131.309 17.3682H129.47C128.903 17.3682 128.443 16.9084 128.443 16.3418H128.452Z" fill="white"/>
<path d="M144.26 2.25006V1.5192C144.26 0.952583 144.719 0.492718 145.286 0.492718H147.126C147.692 0.492718 148.152 0.952583 148.152 1.5192V2.25006C148.152 2.81668 147.692 3.27654 147.126 3.27654H145.286C144.719 3.27654 144.26 2.81668 144.26 2.25006ZM144.26 16.3416V5.40342C144.26 4.8368 144.719 4.37693 145.286 4.37693H147.126C147.692 4.37693 148.152 4.8368 148.152 5.40342V16.3416C148.152 16.9082 147.692 17.3681 147.126 17.3681H145.286C144.719 17.3681 144.26 16.9082 144.26 16.3416Z" fill="white"/>
<path d="M156.126 17.3682C153.096 17.3682 151.256 15.9394 151.256 12.6793V8.62259C151.256 8.05597 150.796 7.59611 150.23 7.59611C149.663 7.59611 149.203 7.13624 149.203 6.56962V5.40354C149.203 4.83692 149.663 4.37705 150.23 4.37705C150.796 4.37705 151.256 3.91719 151.256 3.35057V2.88249C151.256 2.31587 151.716 1.85601 152.283 1.85601H154.122C154.689 1.85601 155.149 2.31587 155.149 2.88249V3.35057C155.149 3.91719 155.609 4.37705 156.175 4.37705H158.327C158.893 4.37705 159.353 4.83692 159.353 5.40354V6.56962C159.353 7.13624 158.893 7.59611 158.327 7.59611H156.175C155.609 7.59611 155.149 8.05597 155.149 8.62259V12.2358C155.149 13.5333 155.641 13.87 157.013 13.87H158.318C158.885 13.87 159.345 14.3298 159.345 14.8965V16.35C159.345 16.9166 158.885 17.3764 158.318 17.3764H156.126V17.3682Z" fill="white"/>
<path d="M161.973 20.7433V19.2652C161.973 18.6986 162.433 18.2387 162.999 18.2387H164.855C165.085 18.2387 165.29 18.2223 165.463 18.1895C166.12 18.0745 166.457 17.3354 166.169 16.736L160.864 5.8388C160.536 5.15722 161.029 4.36887 161.784 4.36887H163.894C164.297 4.36887 164.658 4.59881 164.822 4.96013L167.278 10.2568C167.278 10.2568 167.302 10.3143 167.311 10.3471L168.386 13.3609H168.649L169.676 10.3143C169.676 10.3143 169.692 10.265 169.7 10.2486L171.885 5.00119C172.041 4.62344 172.418 4.36887 172.829 4.36887H174.874C175.621 4.36887 176.114 5.14079 175.802 5.82238L170.045 18.288C168.805 21.0061 167.064 21.7616 163.804 21.7616H163.008C162.441 21.7616 161.981 21.3018 161.981 20.7351L161.973 20.7433Z" fill="white"/>
<path d="M56.2123 38.9735V23.6337C56.2123 23.0671 56.6722 22.6073 57.2388 22.6073H58.7909C59.3575 22.6073 59.8173 23.0671 59.8173 23.6337V26.163H60.0801C60.5482 23.6748 62.207 22.3527 65.2618 22.3527C69.2528 22.3527 71.4782 24.9969 71.4782 29.1193C71.4782 33.2416 69.3021 35.853 65.3932 35.853C62.3877 35.853 60.7289 34.3749 60.2854 32.092H60.1048V38.9735C60.1048 39.5401 59.6449 40 59.0783 40H57.2388C56.6722 40 56.2123 39.5401 56.2123 38.9735ZM63.8822 32.3055C66.3704 32.3055 67.5365 31.4761 67.5365 29.1193C67.5365 26.7625 66.3704 25.9331 63.9069 25.9331C61.4433 25.9331 60.0966 26.7871 60.0966 29.0946V29.2999C60.0966 31.5253 61.4433 32.3055 63.8822 32.3055Z" fill="white"/>
<path d="M72.5618 34.5719V23.6337C72.5618 23.0671 73.0216 22.6073 73.5882 22.6073H75.1403C75.7069 22.6073 76.1668 23.0671 76.1668 23.6337V26.0562H76.3967C76.758 23.954 78.1294 22.3527 80.749 22.3527C83.6478 22.3527 84.8467 24.3482 84.8467 26.8856V28.0107C84.8467 28.5773 84.3869 29.0372 83.8202 29.0372H81.9808C81.4142 29.0372 80.9543 28.5773 80.9543 28.0107V27.6904C80.9543 26.2615 80.3877 25.6456 78.8028 25.6456C77.0701 25.6456 76.446 26.4504 76.446 28.0846V34.5719C76.446 35.1386 75.9861 35.5984 75.4195 35.5984H73.58C73.0134 35.5984 72.5536 35.1386 72.5536 34.5719H72.5618Z" fill="white"/>
<path d="M85.2328 29.1193C85.2328 24.9723 88.2137 22.3527 92.6399 22.3527C97.0661 22.3527 100.047 24.9723 100.047 29.1193C100.047 33.2663 97.0661 35.853 92.6399 35.853C88.2137 35.853 85.2328 33.2088 85.2328 29.1193ZM96.1957 29.1193C96.1957 26.8364 95.2595 25.777 92.6481 25.777C90.0368 25.777 89.1006 26.8364 89.1006 29.1193C89.1006 31.4022 90.0039 32.4122 92.6481 32.4122C95.2924 32.4122 96.1957 31.4022 96.1957 29.1193Z" fill="white"/>
<path d="M107.052 35.5903C104.022 35.5903 102.182 34.1615 102.182 30.9014V26.8447C102.182 26.2781 101.722 25.8182 101.156 25.8182C100.589 25.8182 100.129 25.3583 100.129 24.7917V23.6256C100.129 23.059 100.589 22.5992 101.156 22.5992C101.722 22.5992 102.182 22.1393 102.182 21.5727V21.1046C102.182 20.538 102.642 20.0781 103.209 20.0781H105.048C105.615 20.0781 106.075 20.538 106.075 21.1046V21.5727C106.075 22.1393 106.535 22.5992 107.101 22.5992H109.253C109.819 22.5992 110.279 23.059 110.279 23.6256V24.7917C110.279 25.3583 109.819 25.8182 109.253 25.8182H107.101C106.535 25.8182 106.075 26.2781 106.075 26.8447V30.4579C106.075 31.7554 106.567 32.0921 107.939 32.0921H109.244C109.811 32.0921 110.271 32.5519 110.271 33.1186V34.5721C110.271 35.1387 109.811 35.5985 109.244 35.5985H107.052V35.5903Z" fill="white"/>
<path d="M110.706 29.1193C110.706 24.9723 113.687 22.3527 118.113 22.3527C122.539 22.3527 125.52 24.9723 125.52 29.1193C125.52 33.2663 122.539 35.853 118.113 35.853C113.687 35.853 110.706 33.2088 110.706 29.1193ZM121.669 29.1193C121.669 26.8364 120.733 25.777 118.121 25.777C115.51 25.777 114.574 26.8364 114.574 29.1193C114.574 31.4022 115.477 32.4122 118.121 32.4122C120.765 32.4122 121.669 31.4022 121.669 29.1193Z" fill="white"/>
<path d="M126.202 29.1193C126.202 24.9723 129.051 22.3527 133.51 22.3527C137.682 22.3527 140.532 24.5781 140.532 27.9532V28.3145H136.672V28.1092C136.672 26.4504 135.457 25.8509 133.436 25.8509C131.129 25.8509 130.07 26.705 130.07 29.1193C130.07 31.5336 131.129 32.3547 133.436 32.3547C135.457 32.3547 136.672 31.7553 136.672 30.0965V29.8912H140.532V30.2525C140.532 33.5947 137.682 35.853 133.51 35.853C129.051 35.853 126.202 33.2088 126.202 29.1193Z" fill="white"/>
<path d="M141.205 29.1193C141.205 24.9723 144.186 22.3527 148.612 22.3527C153.038 22.3527 156.019 24.9723 156.019 29.1193C156.019 33.2663 153.038 35.853 148.612 35.853C144.186 35.853 141.205 33.2088 141.205 29.1193ZM152.159 29.1193C152.159 26.8364 151.223 25.777 148.612 25.777C146.001 25.777 145.064 26.8364 145.064 29.1193C145.064 31.4022 145.968 32.4122 148.612 32.4122C151.256 32.4122 152.159 31.4022 152.159 29.1193Z" fill="white"/>
<path d="M157.087 34.5718V19.2567C157.087 18.6901 157.547 18.2302 158.113 18.2302H159.953C160.519 18.2302 160.979 18.6901 160.979 19.2567V34.5718C160.979 35.1384 160.519 35.5983 159.953 35.5983H158.113C157.547 35.5983 157.087 35.1384 157.087 34.5718Z" fill="white"/>
</svg>